# Blender v2.93.6 OBJ File: 'automat.blend'
# www.blender.org
mtllib automat.mtl
o slotmachine.002
v -0.466336 0.000000 0.591496
v -0.466336 2.167082 0.591496
v -0.466336 -0.000000 -0.460053
v 0.466336 0.000000 0.591496
v 0.466336 2.167082 0.591496
v -0.466336 2.167082 -0.197165
v 0.466336 -0.000000 -0.460053
v 0.466336 2.167082 -0.197165
v 0.466336 1.205079 -0.170660
v -0.466336 0.252833 -0.460053
v 0.466336 0.252833 -0.460053
v 0.466336 1.083541 -0.437400
v -0.466336 1.083541 -0.437400
v -0.466336 0.292734 -0.197165
v 0.466336 1.625311 -0.105477
v 0.466336 0.292734 -0.197165
v -0.466336 1.625311 -0.105477
v -0.466336 1.205079 -0.170660
v -0.329580 1.114662 -0.367641
v -0.329580 1.145263 -0.381584
v -0.249988 1.114662 -0.367641
v -0.249988 1.145263 -0.381584
v -0.329580 1.150580 -0.288811
v -0.329580 1.181181 -0.302754
v -0.249988 1.150580 -0.288811
v -0.249988 1.181181 -0.302754
vt 0.371555 0.371554
vt 0.506737 0.371554
vt 0.506737 0.531422
vt 0.371555 0.531421
vt 0.371555 0.902876
vt 0.502194 0.696316
vt 0.547915 0.717149
vt 0.506737 0.852699
vt 0.551798 0.859538
vt 0.551798 0.902876
vt 0.491021 0.624285
vt 0.640913 0.000100
vt 0.640913 0.159967
vt 0.595336 0.159967
vt 0.595336 0.000100
vt 0.371555 0.000100
vt 0.502194 0.206660
vt 0.491021 0.278691
vt 0.551798 0.000100
vt 0.551798 0.043437
vt 0.506737 0.050277
vt 0.551998 0.000100
vt 0.551998 0.159967
vt 0.782580 0.000100
vt 0.782580 0.159967
vt 0.914960 0.357655
vt 0.914960 0.197788
vt 0.965204 0.197788
vt 0.965204 0.357655
vt 0.832823 0.159967
vt 0.832823 0.000100
vt 0.905716 0.000100
vt 0.905716 0.159967
vt 0.999900 0.000100
vt 0.999900 0.159967
vt 0.905716 0.159967
vt 0.905716 0.000100
vt 0.000100 0.531422
vt 0.000100 0.371554
vt 0.576943 0.238248
vt 0.576943 0.232484
vt 0.590586 0.232484
vt 0.590586 0.238248
vt 0.596350 0.232484
vt 0.590586 0.217636
vt 0.596350 0.217636
vt 0.590586 0.211871
vt 0.576943 0.217636
vt 0.576943 0.211871
vt 0.571179 0.217636
vt 0.571179 0.232484
vt 0.547915 0.185827
vn 0.0000 1.0000 0.0000
vn -1.0000 0.0000 0.0000
vn 0.0000 0.9887 -0.1501
vn 1.0000 0.0000 0.0000
vn 0.0000 -0.0000 -1.0000
vn 0.0000 -0.2907 -0.9568
vn 0.0000 0.9100 -0.4146
vn 0.0000 0.1533 -0.9882
vn 0.0000 -0.1669 -0.9860
vn 0.0000 0.0000 1.0000
vn 0.0000 -0.4146 -0.9100
vn 0.0000 0.4146 0.9100
usemtl Material.002
s off
f 5/1/1 8/2/1 6/3/1 2/4/1
f 1/5/2 18/6/2 13/7/2 14/8/2
f 1/5/2 14/8/2 10/9/2 3/10/2
f 2/4/2 6/3/2 17/11/2
f 14/12/3 16/13/3 11/14/3 10/15/3
f 5/1/4 4/16/4 9/17/4 15/18/4
f 8/2/4 5/1/4 15/18/4
f 7/19/4 11/20/4 16/21/4 4/16/4
f 3/22/5 10/15/5 11/14/5 7/23/5
f 14/12/6 13/24/6 12/25/6 16/13/6
f 12/26/7 13/27/7 18/28/7 9/29/7
f 9/30/8 18/31/8 17/32/8 15/33/8
f 15/34/9 17/35/9 6/36/9 8/37/9
f 2/4/10 1/38/10 4/39/10 5/1/10
f 19/40/11 20/41/11 22/42/11 21/43/11
f 21/44/4 22/42/4 26/45/4 25/46/4
f 25/47/12 26/45/12 24/48/12 23/49/12
f 23/50/2 24/48/2 20/41/2 19/51/2
f 26/45/7 22/42/7 20/41/7 24/48/7
f 4/16/4 16/21/4 12/52/4 9/17/4
f 1/5/2 2/4/2 17/11/2 18/6/2
o slotmachine.001
v -0.322215 1.617178 -0.114791
v 0.287341 1.617178 -0.114791
v 0.287341 1.214611 -0.176539
v -0.322215 1.214611 -0.176539
vt 1.000000 1.000000
vt 0.000000 1.000000
vt 0.000000 0.000000
vt 1.000000 0.000000
vn 0.0000 0.1516 -0.9884
usemtl Material.001
s 1
f 27/53/13 28/54/13 29/55/13 30/56/13
o Cube_Cube.002
v -0.021403 0.010708 -0.820444
v -0.021403 0.781522 -0.820443
v -0.021403 0.781522 -1.310495
v -0.021403 0.010708 -1.310495
v 0.530341 0.781522 -1.310495
v 0.530341 0.010708 -1.310495
v 0.530341 0.781522 -0.820443
v 0.530341 0.010708 -0.820444
vt 0.740904 0.488804
vt 0.813868 0.488804
vt 0.813868 0.578458
vt 0.740904 0.578458
vt 0.813868 0.668113
vt 0.740904 0.668113
vt 0.813868 0.757767
vt 0.740904 0.757767
vt 0.813868 0.847421
vt 0.740904 0.847421
vt 0.667940 0.668113
vt 0.667940 0.757767
vt 0.886832 0.668113
vt 0.886832 0.757767
vn -1.0000 0.0000 0.0000
vn 0.0000 0.0000 -1.0000
vn 1.0000 0.0000 0.0000
vn 0.0000 -0.0000 1.0000
vn 0.0000 -1.0000 0.0000
vn 0.0000 1.0000 0.0000
usemtl None
s 1
f 31/57/14 32/58/14 33/59/14 34/60/14
f 34/60/15 33/59/15 35/61/15 36/62/15
f 36/62/16 35/61/16 37/63/16 38/64/16
f 38/64/17 37/63/17 32/65/17 31/66/17
f 34/67/18 36/62/18 38/64/18 31/68/18
f 35/61/19 33/69/19 32/70/19 37/63/19
