# Blender v2.93.6 OBJ File: ''
# www.blender.org
mtllib doors.mtl
o Cube.001_Cube.003
v 0.002382 -0.003130 0.036817
v 0.002382 1.145685 0.036817
v 0.002382 1.145685 -0.004157
v 0.002382 -0.003130 -0.004158
v 0.502886 1.145685 -0.004157
v 0.502886 -0.003130 -0.004158
v 0.502886 1.145685 0.036817
v 0.502886 -0.003130 0.036817
vt 0.964477 0.504983
vt 0.035524 0.504982
vt 0.035523 0.469459
vt 0.964477 0.469459
vt 0.035523 0.035525
vt 0.964477 0.035524
vt 0.035523 0.000001
vt 0.964477 0.000000
vt 0.964476 0.938917
vt 0.035523 0.938916
vt 1.000000 0.504983
vt 1.000000 0.938917
vt 0.000000 0.938916
vt 0.000000 0.504982
vn -1.0000 0.0000 0.0000
vn 0.0000 0.0000 -1.0000
vn 1.0000 -0.0000 0.0000
vn 0.0000 -0.0000 1.0000
vn 0.0000 -1.0000 -0.0000
vn 0.0000 1.0000 0.0000
usemtl Material.003
s 1
f 1/1/1 2/2/1 3/3/1 4/4/1
f 4/4/2 3/3/2 5/5/2 6/6/2
f 6/6/3 5/5/3 7/7/3 8/8/3
f 8/9/4 7/10/4 2/2/4 1/1/4
f 4/11/5 6/12/5 8/9/5 1/1/5
f 5/13/6 3/14/6 2/2/6 7/10/6
