# Blender v2.93.6 OBJ File: 'premisa3.blend'
# www.blender.org
mtllib table.mtl
o Cylinder.002_Cylinder.001
v 1.382446 3.233881 0.000000
v 6.010078 3.185666 -2.088197
v 6.010078 3.001224 -2.088197
v 6.010078 3.185666 1.881097
v 6.010078 3.001224 1.881097
v -2.019236 3.185666 -2.088197
v 1.021258 3.258376 0.000000
v -1.021258 3.258376 -0.000000
v -2.019236 3.001224 -2.088197
v -2.019236 3.185666 1.881097
v -2.019236 3.001224 1.881097
v -1.617770 3.001224 1.881097
v -1.617770 3.001224 -2.088197
v -1.617770 3.185666 -2.088197
v -1.617770 3.185666 1.881097
v 5.628686 3.001224 1.881097
v 5.628686 3.185666 -2.088197
v 5.628686 3.001224 -2.088197
v 5.628686 3.185666 1.881097
v 6.010078 3.001224 1.484168
v -2.019236 3.185666 1.484168
v -2.019236 3.001224 1.484168
v 6.010078 3.185666 1.484168
v -1.617770 3.001224 1.484168
v -1.617770 3.185666 1.484168
v 5.628686 3.185666 1.484168
v 5.628686 3.001224 1.484168
v 6.010078 3.001224 -1.730960
v -2.019236 3.185666 -1.730960
v -2.019236 3.001224 -1.730960
v 6.010078 3.185666 -1.730960
v -1.617770 3.001224 -1.730960
v -1.617770 3.185666 -1.730960
v 5.628686 3.185666 -1.730960
v 5.628686 3.001224 -1.730960
v 5.628686 0.001224 1.881097
v 6.010078 0.001224 1.881097
v 6.010078 0.001224 -1.730960
v 6.010078 0.001224 -2.088197
v -1.617770 0.001224 -2.088197
v -2.019236 0.001224 -2.088197
v -2.019236 0.001224 1.484168
v -2.019236 0.001224 1.881097
v -1.617770 0.001224 1.881097
v -1.617770 0.001224 1.484168
v 5.628686 0.001224 -2.088197
v 5.628686 0.001224 1.484168
v 6.010078 0.001224 1.484168
v -2.019236 0.001224 -1.730960
v -1.617770 0.001224 -1.730960
v 5.628686 0.001224 -1.730960
v -2.019236 3.265895 -1.730960
v -2.019236 3.265895 -2.088197
v 5.628686 3.265895 -2.088197
v 6.010078 3.265895 -2.088197
v -1.617770 3.265895 1.881097
v -2.019236 3.265895 1.881097
v 6.010078 3.265895 1.484168
v 6.010078 3.265895 1.881097
v -1.617770 3.265895 -2.088197
v 5.628686 3.265895 1.881097
v -1.617770 3.265895 1.484168
v 5.628686 3.265895 1.484168
v -2.019236 3.265895 1.484168
v 6.010078 3.265895 -1.730960
v -1.617770 3.265895 -1.730960
v 5.628686 3.265895 -1.730960
vt 0.625000 0.988125
vt 0.625000 0.762500
vt 0.625000 0.762500
vt 0.625000 0.988125
vt 0.387500 0.272500
vt 0.375000 0.272500
vt 0.375000 0.272500
vt 0.387500 0.272500
vt 0.375000 0.725000
vt 0.625000 0.725000
vt 0.625000 0.750000
vt 0.375000 0.750000
vt 0.375000 0.988125
vt 0.625000 1.000000
vt 0.375000 1.000000
vt 0.125000 0.727500
vt 0.375000 0.727500
vt 0.375000 0.750000
vt 0.125000 0.750000
vt 0.625000 0.737500
vt 0.875000 0.737500
vt 0.875000 0.750000
vt 0.625000 0.750000
vt 0.625000 0.511875
vt 0.875000 0.511875
vt 0.375000 0.750000
vt 0.625000 0.750000
vt 0.375000 0.762500
vt 0.375000 0.762500
vt 0.375000 0.750000
vt 0.375000 0.727500
vt 0.375000 0.750000
vt 0.386875 0.022500
vt 0.386875 0.225000
vt 0.386875 0.225000
vt 0.386875 0.022500
vt 0.625000 0.500000
vt 0.875000 0.500000
vt 0.387500 0.475000
vt 0.613125 0.475000
vt 0.613125 0.500000
vt 0.387500 0.500000
vt 0.613125 0.272500
vt 0.612500 0.022500
vt 0.612500 0.022500
vt 0.720766 0.474601
vt 0.720766 0.022899
vt 0.903609 0.022899
vt 0.903609 0.474601
vt 0.375000 0.475000
vt 0.125000 0.500000
vt 0.375000 0.500000
vt 0.375000 0.525000
vt 0.125000 0.525000
vt 0.375000 0.522500
vt 0.625000 0.522500
vt 0.625000 0.272500
vt 0.625000 0.475000
vt 0.625000 0.725000
vt 0.625000 0.750000
vt 0.612500 0.225000
vt 0.612500 0.225000
vt 0.387500 0.475000
vt 0.375000 0.475000
vt 0.375000 0.500000
vt 0.625000 0.500000
vt 0.125000 0.750000
vt 0.125000 0.727500
vt 0.625000 0.500000
vt 0.625000 0.522500
vt 0.875000 0.737500
vt 0.875000 0.750000
vt 0.387500 0.250000
vt 0.613125 0.250000
vt 0.613125 0.475000
vt 0.625000 0.475000
vt 0.625000 0.500000
vt 0.613125 0.500000
vt 0.387500 0.500000
vt 0.375000 0.500000
vt 0.613125 0.250000
vt 0.625000 0.250000
vt 0.625000 0.272500
vt 0.613125 0.272500
vt 0.375000 0.250000
vt 0.387500 0.250000
vt 0.625000 0.750000
vt 0.625000 0.737500
vt 0.375000 0.750000
vt 0.375000 0.725000
vt 0.125000 0.525000
vt 0.125000 0.500000
vt 0.375000 1.000000
vt 0.375000 0.988125
vt 0.625000 0.511875
vt 0.375000 0.522500
vt 0.375000 0.500000
vt 0.625000 0.225000
vt 0.625000 0.250000
vt 0.612500 0.250000
vt 0.386875 0.250000
vt 0.375000 0.225000
vt 0.375000 0.250000
vt 0.375000 0.022500
vt 0.625000 0.022500
vt 0.612500 0.000000
vt 0.625000 0.000000
vt 0.386875 0.000000
vt 0.375000 0.000000
vt 0.625000 0.750000
vt 0.375000 0.500000
vt 0.375000 0.525000
vt 0.875000 0.511875
vt 0.625000 1.000000
vt 0.875000 0.500000
vn 0.0000 0.0000 -1.0000
vn 0.0000 0.0000 1.0000
vn 1.0000 0.0000 0.0000
vn -1.0000 0.0000 0.0000
vn 0.0000 -1.0000 0.0000
vn 0.0000 1.0000 0.0000
usemtl Material.003
s off
f 17/1/1 14/2/1 60/3/1 54/4/1
f 32/5/2 30/6/2 49/7/2 50/8/2
f 20/9/3 23/10/3 4/11/3 5/12/3
f 18/13/1 17/1/1 2/14/1 3/15/1
f 30/16/4 29/17/4 6/18/4 9/19/4
f 12/20/2 15/21/2 10/22/2 11/23/2
f 16/24/2 19/25/2 15/21/2 12/20/2
f 9/26/1 6/27/1 14/2/1 13/28/1
f 9/26/1 13/28/1 40/29/1 41/30/1
f 6/18/4 29/17/4 52/31/4 53/32/4
f 34/33/4 26/34/4 63/35/4 67/36/4
f 5/37/2 4/38/2 19/25/2 16/24/2
f 13/28/1 14/2/1 17/1/1 18/13/1
f 24/39/5 27/40/5 16/41/5 12/42/5
f 32/5/5 35/43/5 27/40/5 24/39/5
f 33/44/2 34/33/2 67/36/2 66/45/2
f 34/46/6 33/47/6 25/48/6 26/49/6
f 30/6/5 32/5/5 24/39/5 22/50/5
f 11/51/4 10/52/4 21/53/4 22/54/4
f 28/55/3 31/56/3 23/10/3 20/9/3
f 35/43/5 28/57/5 20/58/5 27/40/5
f 4/11/3 23/10/3 58/59/3 59/60/3
f 25/61/3 33/44/3 66/45/3 62/62/3
f 22/50/1 24/39/1 45/63/1 42/64/1
f 3/65/3 2/66/3 31/56/3 28/55/3
f 30/16/4 9/19/4 41/67/4 49/68/4
f 31/56/3 2/66/3 55/69/3 65/70/3
f 10/22/2 15/21/2 56/71/2 57/72/2
f 13/73/5 18/74/5 35/43/5 32/5/5
f 22/54/4 21/53/4 29/17/4 30/16/4
f 47/75/5 48/76/5 37/77/5 36/78/5
f 42/64/5 45/63/5 44/79/5 43/80/5
f 46/81/5 39/82/5 38/83/5 51/84/5
f 41/85/5 40/86/5 50/8/5 49/7/5
f 24/39/3 12/42/3 44/79/3 45/63/3
f 13/73/3 32/5/3 50/8/3 40/86/3
f 12/20/2 11/23/2 43/87/2 44/88/2
f 16/41/4 27/40/4 47/75/4 36/78/4
f 27/40/1 20/58/1 48/76/1 47/75/1
f 20/9/3 5/12/3 37/89/3 48/90/3
f 35/43/4 18/74/4 46/81/4 51/84/4
f 11/51/4 22/54/4 42/91/4 43/92/4
f 18/13/1 3/15/1 39/93/1 46/94/1
f 5/37/2 16/24/2 36/95/2 37/77/2
f 3/65/3 28/55/3 38/96/3 39/97/3
f 28/57/2 35/43/2 51/84/2 38/83/2
f 62/62/6 64/98/6 57/99/6 56/100/6
f 63/35/6 62/62/6 56/100/6 61/101/6
f 58/102/6 63/35/6 61/101/6 59/103/6
f 65/104/6 67/36/6 63/35/6 58/102/6
f 66/45/6 52/105/6 64/98/6 62/62/6
f 60/106/6 53/107/6 52/105/6 66/45/6
f 54/108/6 60/106/6 66/45/6 67/36/6
f 55/109/6 54/108/6 67/36/6 65/104/6
f 14/2/1 6/27/1 53/110/1 60/3/1
f 21/53/4 10/52/4 57/111/4 64/112/4
f 15/21/2 19/25/2 61/113/2 56/71/2
f 29/17/4 21/53/4 64/112/4 52/31/4
f 2/14/1 17/1/1 54/4/1 55/114/1
f 19/25/2 4/38/2 59/115/2 61/113/2
f 26/34/1 25/61/1 62/62/1 63/35/1
f 23/10/3 31/56/3 65/70/3 58/59/3
